<svg xmlns="http://www.w3.org/2000/svg" width="1440" height="1024" viewBox="0 0 1440 1024"><rect width="1440" height="1024" fill="#090A0D"/><text x="40" y="52" font-family="Arial, Helvetica, sans-serif" font-size="17" font-weight="850" fill="#F5F1E8" text-anchor="start" opacity="1" letter-spacing="2.1">XTREAM UTD</text><text x="240" y="52" font-family="Arial, Helvetica, sans-serif" font-size="11" font-weight="750" fill="#F5F1E8" text-anchor="start" opacity="1" letter-spacing="1">HOME</text><line x1="240" y1="64" x2="272" y2="64" stroke="#FF6B45" stroke-width="2" opacity="1"/><text x="352" y="52" font-family="Arial, Helvetica, sans-serif" font-size="11" font-weight="750" fill="#979AA3" text-anchor="start" opacity="1" letter-spacing="1">ALL PRODUCTS</text><text x="494" y="52" font-family="Arial, Helvetica, sans-serif" font-size="11" font-weight="750" fill="#979AA3" text-anchor="start" opacity="1" letter-spacing="1">CATEGORIES</text><text x="606" y="52" font-family="Arial, Helvetica, sans-serif" font-size="11" font-weight="750" fill="#979AA3" text-anchor="start" opacity="1" letter-spacing="1">ABOUT</text><text x="718" y="52" font-family="Arial, Helvetica, sans-serif" font-size="11" font-weight="750" fill="#979AA3" text-anchor="start" opacity="1" letter-spacing="1">CONTACT</text><circle cx="1308" cy="45" r="18" fill="#13151A" stroke="#30343C" stroke-width="1" opacity="1"/><text x="1308" y="50" font-family="Arial, Helvetica, sans-serif" font-size="17" font-weight="700" fill="#F5F1E8" text-anchor="middle" opacity="1" letter-spacing="0">⌕</text><circle cx="1358" cy="45" r="18" fill="#13151A" stroke="#30343C" stroke-width="1" opacity="1"/><circle cx="1358" cy="45" r="6" fill="#F5F1E8" stroke="none" stroke-width="1" opacity="1"/><circle cx="1408" cy="45" r="18" fill="#13151A" stroke="#30343C" stroke-width="1" opacity="1"/><text x="1408" y="50" font-family="Arial, Helvetica, sans-serif" font-size="15" font-weight="700" fill="#F5F1E8" text-anchor="middle" opacity="1" letter-spacing="0">≡</text><text x="40" y="112" font-family="Arial, Helvetica, sans-serif" font-size="12" font-weight="800" fill="#FF6B45" text-anchor="start" opacity="1" letter-spacing="1.7">XTREAM UTD</text><text x="40" y="145" font-family="Arial, Helvetica, sans-serif" font-size="20" font-weight="750" fill="#F5F1E8" text-anchor="start" opacity="1" letter-spacing="0">Trending gadgets and accessories</text><text x="40" y="170" font-family="Arial, Helvetica, sans-serif" font-size="15" font-weight="400" fill="#979AA3" text-anchor="start" opacity="1" letter-spacing="0">for your desk, home and everyday life.</text><text x="40" y="202" font-family="Arial, Helvetica, sans-serif" font-size="9" font-weight="750" fill="#979AA3" text-anchor="start" opacity="1" letter-spacing="0.7">QUALITY PRODUCTS  ·  AFFORDABLE PRICES  ·  DELIVERY ACROSS BANGLADESH</text><ellipse cx="760" cy="530" rx="385" ry="300" fill="none" stroke="#30343C" stroke-width="1" opacity=".23"/><ellipse cx="760" cy="530" rx="300" ry="385" fill="none" stroke="#30343C" stroke-width="1" opacity=".18" transform="rotate(40 760 530)"/><g opacity="1"><rect x="892.0179024583334" y="211.97386798431748" width="80.00087015827758" height="84.00091366619147" rx="10" fill="#1D2027" stroke="#30343C" stroke-width="1" opacity="1"/><rect x="898.0179024583334" y="217.97386798431748" width="68.00087015827758" height="72.00091366619147" rx="8" fill="#1D2027" stroke="none" stroke-width="0" opacity="1"/><rect x="911.618076489989" y="230.17402026201606" width="40.800522094966546" height="47.6006091107943" rx="5.440069612662207" fill="#0E0F12" stroke="#F5F1E8" stroke-width="2" opacity="1"/><circle cx="932.0183375374722" cy="245.8142203984199" r="9.520121822158861" fill="none" stroke="#80A96C" stroke-width="5" opacity="1"/><circle cx="932.0183375374722" cy="267.57449884906873" r="6.1200783142449815" fill="#80A96C" stroke="none" stroke-width="1" opacity="1"/></g><g opacity="1"><rect x="882.8736123186727" y="517.1784897926635" width="72.51113169912043" height="52.2080148233667" rx="10" fill="#1D2027" stroke="#30343C" stroke-width="1" opacity="1"/><rect x="888.8736123186727" y="523.1784897926635" width="60.511131699120426" height="40.2080148233667" rx="8" fill="#1D2027" stroke="none" stroke-width="0" opacity="1"/><circle cx="919.1291781682329" cy="544.8908177972816" r="11.258244150542678" fill="#90BE6D" stroke="#F5F1E8" stroke-width="2" opacity="1"/><rect x="914.3042163894289" y="528.0034515714675" width="9.649923557608009" height="8.041602964673341" rx="2.0104007411683353" fill="#0E0F12" stroke="#F5F1E8" stroke-width="2" opacity="1"/><circle cx="919.1291781682329" cy="544.8908177972816" r="2.4124808894020022" fill="#F5F1E8" stroke="none" stroke-width="1" opacity="1"/></g><g opacity="1"><rect x="905.3501180487926" y="676.8355478014852" width="77.30097780352853" height="55.65670401854054" rx="10" fill="#1D2027" stroke="#30343C" stroke-width="1" opacity="1"/><rect x="911.3501180487926" y="682.8355478014852" width="65.30097780352853" height="43.65670401854054" rx="8" fill="#1D2027" stroke="none" stroke-width="0" opacity="1"/><rect x="936.1424002272196" y="691.5668886051933" width="15.716413446674594" height="20.955217928899458" rx="1.7462681607416215" fill="#0E0F12" stroke="#F5F1E8" stroke-width="2" opacity="1"/><line x1="944.0006069505569" y1="712.5221065340927" x2="944.0006069505569" y2="720.8168802976154" stroke="#F5F1E8" stroke-width="4" opacity="1"/><line x1="944.0006069505569" y1="720.8168802976154" x2="933.9595650262926" y2="725.6191177396549" stroke="#F5F1E8" stroke-width="3" opacity="1"/><line x1="944.0006069505569" y1="720.8168802976154" x2="954.0416488748211" y2="725.6191177396549" stroke="#F5F1E8" stroke-width="3" opacity="1"/></g><g opacity="1"><rect x="488.4705525325687" y="500.20689451018075" width="93.5682935416439" height="78.59736657498087" rx="10" fill="#1D2027" stroke="#30343C" stroke-width="1" opacity="1"/><rect x="494.4705525325687" y="506.20689451018075" width="81.5682935416439" height="66.59736657498087" rx="8" fill="#1D2027" stroke="none" stroke-width="0" opacity="1"/><rect x="523.2671733198941" y="515.5305258306781" width="23.97505196699311" height="47.95010393398622" rx="7.325710323247895" fill="#F6BD60" stroke="#F5F1E8" stroke-width="2" opacity="1"/><rect x="527.263015314393" y="509.5367628389298" width="15.983367977995407" height="7.991683988997703" rx="1.9979209972494258" fill="#0E0F12" stroke="#F5F1E8" stroke-width="2" opacity="1"/></g><g opacity="1"><rect x="514.340239713863" y="700.4681483381152" width="97.11924666013942" height="81.58016719451712" rx="10" fill="#1D2027" stroke="#30343C" stroke-width="1" opacity="1"/><rect x="520.340239713863" y="706.4681483381152" width="85.11924666013942" height="69.58016719451712" rx="8" fill="#1D2027" stroke="none" stroke-width="0" opacity="1"/><path d="M 562.8998630439327 716.2093717453475 C 544.113217901413 720.3841817770186, 540.6342095416871 764.9154887815096, 562.8998630439327 767.6986954692902 C 585.1655165461782 764.9154887815096, 581.6865081864523 720.3841817770186, 562.8998630439327 716.2093717453475 Z" fill="#0E0F12" stroke="#F5F1E8" stroke-width="2" opacity="1" stroke-linecap="round" stroke-linejoin="round"/><line x1="562.8998630439327" y1="718.2967767611831" x2="562.8998630439327" y2="739.8666285914834" stroke="#00A6A6" stroke-width="3" opacity="1"/></g><g opacity="1"><rect x="674.3181350986565" y="625.9842332294709" width="81.46140756672445" height="58.6522134480416" rx="10" fill="#1D2027" stroke="#30343C" stroke-width="1" opacity="1"/><rect x="680.3181350986565" y="631.9842332294709" width="69.46140756672445" height="46.6522134480416" rx="8" fill="#1D2027" stroke="none" stroke-width="0" opacity="1"/><rect x="695.4549092338412" y="645.9798972638833" width="39.187859296354944" height="18.66088537921664" rx="1.866088537921664" fill="#0E0F12" stroke="#F5F1E8" stroke-width="2" opacity="1"/><rect x="698.7205641752041" y="649.2455522052462" width="3.49891600860312" height="3.032393874122704" rx="1" fill="#2FB8D1" stroke="none" stroke-width="0" opacity="0.85"/><rect x="703.6190465872485" y="649.2455522052462" width="3.49891600860312" height="3.032393874122704" rx="1" fill="#F5F1E8" stroke="none" stroke-width="0" opacity="0.85"/><rect x="708.5175289992928" y="649.2455522052462" width="3.49891600860312" height="3.032393874122704" rx="1" fill="#F5F1E8" stroke="none" stroke-width="0" opacity="0.85"/><rect x="713.4160114113372" y="649.2455522052462" width="3.49891600860312" height="3.032393874122704" rx="1" fill="#F5F1E8" stroke="none" stroke-width="0" opacity="0.85"/><rect x="718.3144938233816" y="649.2455522052462" width="3.49891600860312" height="3.032393874122704" rx="1" fill="#F5F1E8" stroke="none" stroke-width="0" opacity="0.85"/><rect x="723.2129762354259" y="649.2455522052462" width="3.49891600860312" height="3.032393874122704" rx="1" fill="#F5F1E8" stroke="none" stroke-width="0" opacity="0.85"/><rect x="728.1114586474703" y="649.2455522052462" width="3.49891600860312" height="3.032393874122704" rx="1" fill="#2FB8D1" stroke="none" stroke-width="0" opacity="0.85"/><rect x="698.7205641752041" y="654.1440346172906" width="3.49891600860312" height="3.032393874122704" rx="1" fill="#F5F1E8" stroke="none" stroke-width="0" opacity="0.85"/><rect x="703.6190465872485" y="654.1440346172906" width="3.49891600860312" height="3.032393874122704" rx="1" fill="#F5F1E8" stroke="none" stroke-width="0" opacity="0.85"/><rect x="708.5175289992928" y="654.1440346172906" width="3.49891600860312" height="3.032393874122704" rx="1" fill="#F5F1E8" stroke="none" stroke-width="0" opacity="0.85"/><rect x="713.4160114113372" y="654.1440346172906" width="3.49891600860312" height="3.032393874122704" rx="1" fill="#F5F1E8" stroke="none" stroke-width="0" opacity="0.85"/><rect x="718.3144938233816" y="654.1440346172906" width="3.49891600860312" height="3.032393874122704" rx="1" fill="#F5F1E8" stroke="none" stroke-width="0" opacity="0.85"/><rect x="723.2129762354259" y="654.1440346172906" width="3.49891600860312" height="3.032393874122704" rx="1" fill="#2FB8D1" stroke="none" stroke-width="0" opacity="0.85"/><rect x="728.1114586474703" y="654.1440346172906" width="3.49891600860312" height="3.032393874122704" rx="1" fill="#F5F1E8" stroke="none" stroke-width="0" opacity="0.85"/><rect x="698.7205641752041" y="659.0425170293349" width="3.49891600860312" height="3.032393874122704" rx="1" fill="#F5F1E8" stroke="none" stroke-width="0" opacity="0.85"/><rect x="703.6190465872485" y="659.0425170293349" width="3.49891600860312" height="3.032393874122704" rx="1" fill="#F5F1E8" stroke="none" stroke-width="0" opacity="0.85"/><rect x="708.5175289992928" y="659.0425170293349" width="3.49891600860312" height="3.032393874122704" rx="1" fill="#F5F1E8" stroke="none" stroke-width="0" opacity="0.85"/><rect x="713.4160114113372" y="659.0425170293349" width="3.49891600860312" height="3.032393874122704" rx="1" fill="#F5F1E8" stroke="none" stroke-width="0" opacity="0.85"/><rect x="718.3144938233816" y="659.0425170293349" width="3.49891600860312" height="3.032393874122704" rx="1" fill="#2FB8D1" stroke="none" stroke-width="0" opacity="0.85"/><rect x="723.2129762354259" y="659.0425170293349" width="3.49891600860312" height="3.032393874122704" rx="1" fill="#F5F1E8" stroke="none" stroke-width="0" opacity="0.85"/><rect x="728.1114586474703" y="659.0425170293349" width="3.49891600860312" height="3.032393874122704" rx="1" fill="#F5F1E8" stroke="none" stroke-width="0" opacity="0.85"/></g><g opacity="1"><rect x="596.3806039102963" y="321.0442801389372" width="106.57252531621904" height="111.90115158203" rx="10" fill="#1D2027" stroke="#30343C" stroke-width="1" opacity="1"/><rect x="602.3806039102963" y="327.0442801389372" width="94.57252531621904" height="99.90115158203" rx="8" fill="#1D2027" stroke="none" stroke-width="0" opacity="1"/><rect x="638.3181635304595" y="335.3829447908158" width="22.69740607589257" height="83.22382227827276" rx="9.457252531621904" fill="#E76BA8" stroke="none" stroke-width="0" opacity="1"/><rect x="627.9151857456754" y="354.29744985405966" width="43.503361645460764" height="45.39481215178514" rx="7.565802025297524" fill="#0E0F12" stroke="#F5F1E8" stroke-width="2" opacity="1"/><circle cx="649.6668665684058" cy="376.9948559299522" r="10.402977784784095" fill="none" stroke="#E76BA8" stroke-width="3" opacity="1"/></g><g opacity="1"><rect x="988.9652855654649" y="425.58011605704536" width="107.09337915902" height="112.44804811697101" rx="10" fill="#1D2027" stroke="#30343C" stroke-width="1" opacity="1"/><rect x="994.9652855654649" y="431.58011605704536" width="95.09337915902" height="100.44804811697101" rx="8" fill="#1D2027" stroke="none" stroke-width="0" opacity="1"/><rect x="1010.1802262309081" y="464.68733186690724" width="64.6634978281336" height="34.2336164972472" rx="5.7056027495412" fill="#0E0F12" stroke="#F5F1E8" stroke-width="2" opacity="1"/><rect x="1019.6895641468102" y="474.19666978280924" width="9.509337915902" height="15.214940665443201" rx="2" fill="#6C63FF" stroke="none" stroke-width="0" opacity="1"/><rect x="1034.9045048122534" y="474.19666978280924" width="9.509337915902" height="15.214940665443201" rx="2" fill="#F5F1E8" stroke="none" stroke-width="0" opacity="1"/><rect x="1050.1194454776967" y="474.19666978280924" width="9.509337915902" height="15.214940665443201" rx="2" fill="#F5F1E8" stroke="none" stroke-width="0" opacity="1"/><rect x="1065.33438614314" y="474.19666978280924" width="9.509337915902" height="15.214940665443201" rx="2" fill="#F5F1E8" stroke="none" stroke-width="0" opacity="1"/></g><g opacity="1"><rect x="905.4589063011725" y="342.6166707057484" width="105.35913828630915" height="75.85857956614258" rx="10" fill="#1D2027" stroke="#30343C" stroke-width="1" opacity="1"/><rect x="911.4589063011725" y="348.6166707057484" width="93.35913828630915" height="63.85857956614258" rx="8" fill="#1D2027" stroke="none" stroke-width="0" opacity="1"/><rect x="933.872215209193" y="362.66555821029976" width="48.53252047026836" height="35.76080455703985" rx="5.1086863652914065" fill="#0E0F12" stroke="#F5F1E8" stroke-width="2" opacity="1"/><line x1="958.1384754443271" y1="362.66555821029976" x2="958.1384754443271" y2="398.4263627673396" stroke="#F5F1E8" stroke-width="2" opacity="1"/><rect x="939.6194873701457" y="370.9671735538983" width="12.771715913228517" height="19.157573869842775" rx="4" fill="#4D908E" stroke="none" stroke-width="0" opacity="1"/><circle cx="970.9101913575556" cy="380.5459604888197" r="5.747272160952832" fill="#4D908E" stroke="none" stroke-width="1" opacity="1"/></g><g opacity="1"><rect x="719.728866000097" y="302.3249178539461" width="121.91372355012714" height="102.4075277821068" rx="10" fill="#1D2027" stroke="#30343C" stroke-width="1" opacity="1"/><rect x="725.728866000097" y="308.3249178539461" width="109.91372355012714" height="90.4075277821068" rx="8" fill="#1D2027" stroke="none" stroke-width="0" opacity="1"/><rect x="758.0838458296339" y="350.8164559115363" width="45.2037638910534" height="31.642634723737377" rx="7.232602222568544" fill="#F5F1E8" stroke="none" stroke-width="0" opacity="1"/><circle cx="768.0286738856656" cy="335.44717618857817" r="9.944828056031747" fill="#6C7BFF" stroke="#0E0F12" stroke-width="2" opacity="1"/><circle cx="793.3427816646555" cy="335.44717618857817" r="9.944828056031747" fill="#6C7BFF" stroke="#0E0F12" stroke-width="2" opacity="1"/></g><g opacity="1"><rect x="822.7" y="486.44" width="121.0" height="87.11999999999999" rx="10" fill="#1D2027" stroke="#30343C" stroke-width="1" opacity="1"/><rect x="828.7" y="492.44" width="109.0" height="75.11999999999999" rx="8" fill="#1D2027" stroke="none" stroke-width="0" opacity="1"/><path d="M 862.1664000000001 543.5216 L 901.2288000000001 543.5216 L 889.2096 522.488 L 874.1856 522.488 Z" fill="#FF7354" stroke="#F5F1E8" stroke-width="2" opacity="1" stroke-linecap="round" stroke-linejoin="round"/><rect x="865.9224" y="503.708" width="34.5552" height="21.0336" rx="4" fill="#0E0F12" stroke="#F5F1E8" stroke-width="2" opacity="1"/></g><g opacity="1"><rect x="426.95861603331093" y="249.2504493334098" width="137.58402645618065" height="115.57058222319175" rx="10" fill="#1D2027" stroke="#30343C" stroke-width="1" opacity="1"/><rect x="432.95861603331093" y="255.2504493334098" width="125.58402645618065" height="103.57058222319175" rx="8" fill="#1D2027" stroke="none" stroke-width="0" opacity="1"/><rect x="470.89368952783525" y="278.03597742251196" width="49.71387946713204" height="57.999526044987384" rx="6.214234933391505" fill="#F5F1E8" stroke="none" stroke-width="0" opacity="1"/><rect x="485.39357103908213" y="265.60750755572894" width="6.214234933391505" height="16.57129315571068" rx="2" fill="#577590" stroke="none" stroke-width="0" opacity="1"/><rect x="499.89345255032896" y="265.60750755572894" width="6.214234933391505" height="16.57129315571068" rx="2" fill="#577590" stroke="none" stroke-width="0" opacity="1"/><circle cx="495.7506292614013" cy="312.2142695561653" r="11.392764044551093" fill="#0E0F12" stroke="none" stroke-width="1" opacity="1"/></g><g opacity="1"><rect x="740.8408699778848" y="588.678775195017" width="144.3478589720831" height="121.25220153654979" rx="10" fill="#1D2027" stroke="#30343C" stroke-width="1" opacity="1"/><rect x="746.8408699778848" y="594.678775195017" width="132.3478589720831" height="109.25220153654979" rx="8" fill="#1D2027" stroke="none" stroke-width="0" opacity="1"/><rect x="778.0540949722304" y="609.974083410134" width="13.110264184385974" height="78.66158510631584" rx="5.46261007682749" fill="#FFB000" stroke="none" stroke-width="0" opacity="1"/><rect x="834.8652397712364" y="609.974083410134" width="13.110264184385974" height="78.66158510631584" rx="5.46261007682749" fill="#F5F1E8" stroke="none" stroke-width="0" opacity="1"/><line x1="784.6092270644234" y1="690.8207125471808" x2="802.0895793102713" y2="699.5608886701049" stroke="#F5F1E8" stroke-width="4" opacity="1"/><line x1="841.4203718634293" y1="690.8207125471808" x2="823.9400196175814" y2="699.5608886701049" stroke="#F5F1E8" stroke-width="4" opacity="1"/></g><g opacity="1"><rect x="368.54467031840363" y="584.8480612418143" width="128.92475968377607" height="92.82582697231877" rx="10" fill="#1D2027" stroke="#30343C" stroke-width="1" opacity="1"/><rect x="374.54467031840363" y="590.8480612418143" width="116.92475968377607" height="80.82582697231877" rx="8" fill="#1D2027" stroke="none" stroke-width="0" opacity="1"/><path d="M 405.5262689897033 639.3435574252055 C 416.8418847658279 602.9719352876622, 445.13092420613947 659.5500141682852, 460.48783133088006 623.1783920307419" fill="none" stroke="#3977F6" stroke-width="7" opacity="1" stroke-linecap="round" stroke-linejoin="round"/><rect x="399.06020283191776" y="634.4940078068664" width="9.69909923667825" height="9.69909923667825" rx="2" fill="#F5F1E8" stroke="none" stroke-width="0" opacity="1"/><rect x="457.2547982519873" y="618.3288424124027" width="9.69909923667825" height="9.69909923667825" rx="2" fill="#F5F1E8" stroke="none" stroke-width="0" opacity="1"/></g><g opacity="1"><rect x="510.73748826563417" y="549.2141805431247" width="143.52954794821494" height="150.7060253456257" rx="10" fill="#1D2027" stroke="#30343C" stroke-width="1" opacity="1"/><rect x="516.7374882656342" y="555.2141805431247" width="131.52954794821494" height="138.7060253456257" rx="8" fill="#1D2027" stroke="none" stroke-width="0" opacity="1"/><rect x="552.2504662116522" y="587.7389197904374" width="60.503592056178874" height="73.65654685100037" rx="7.8917728768928965" fill="#F5F1E8" stroke="none" stroke-width="0" opacity="1"/><rect x="569.3493074449201" y="571.9553740366516" width="7.8917728768928965" height="21.04472767171439" rx="2" fill="#F94144" stroke="none" stroke-width="0" opacity="1"/><rect x="587.7634441576703" y="571.9553740366516" width="7.8917728768928965" height="21.04472767171439" rx="2" fill="#F94144" stroke="none" stroke-width="0" opacity="1"/><path d="M 575.9257848423309 617.9907158185268 L 589.0787396371524 617.9907158185268 L 582.5022622397416 640.3507389697234 Z" fill="#F94144" stroke="none" stroke-width="1" opacity="1" stroke-linecap="round" stroke-linejoin="round"/></g><g opacity="1"><rect x="325.7800884973976" y="402.21498971703954" width="157.70689591386073" height="165.59224070955378" rx="10" fill="#1D2027" stroke="#30343C" stroke-width="1" opacity="1"/><rect x="331.7800884973976" y="408.21498971703954" width="145.70689591386073" height="153.59224070955378" rx="8" fill="#1D2027" stroke="none" stroke-width="0" opacity="1"/><circle cx="404.633536454328" cy="485.01111007181646" r="46.62620669243544" fill="#0E0F12" stroke="#F5F1E8" stroke-width="2" opacity="1"/><circle cx="404.633536454328" cy="485.01111007181646" r="11.65655167310886" fill="#FF9C7A" stroke="none" stroke-width="1" opacity="1"/><path d="M 404.633536454328 485.01111007181646 Q 446.8885362693476 479.182834235262 443.9743983510704 485.01111007181646" fill="none" stroke="#FF9C7A" stroke-width="8" opacity="1" stroke-linecap="round" stroke-linejoin="round"/><path d="M 404.633536454328 485.01111007181646 Q 409.61323896536487 500.5646789827521 384.77245557415665 518.9705105531243" fill="none" stroke="#FF9C7A" stroke-width="8" opacity="1" stroke-linecap="round" stroke-linejoin="round"/><path d="M 404.633536454328 485.01111007181646 Q 409.9745189448166 457.59375217540344 385.3462531885801 450.7225679767469" fill="none" stroke="#FF9C7A" stroke-width="8" opacity="1" stroke-linecap="round" stroke-linejoin="round"/></g><g opacity="1"><rect x="809.2903490869402" y="523.7271502168093" width="158.17816109950326" height="166.08706915447843" rx="10" fill="#1D2027" stroke="#30343C" stroke-width="1" opacity="1"/><rect x="815.2903490869402" y="529.7271502168093" width="146.17816109950326" height="154.08706915447843" rx="8" fill="#1D2027" stroke="none" stroke-width="0" opacity="1"/><rect x="851.8348893618161" y="583.382179018128" width="73.08908054975163" height="70.16551732776156" rx="14.617816109950326" fill="#F5F1E8" stroke="none" stroke-width="0" opacity="1"/><circle cx="888.3794296366918" cy="612.6178112380287" r="11.69425288796026" fill="#84A59D" stroke="none" stroke-width="1" opacity="1"/><path d="M 876.6851767487316 580.4586157961379 Q 864.9909238607713 551.2229835762373 883.9940848037068 545.3758571322571" fill="none" stroke="#84A59D" stroke-width="4" opacity="1" stroke-linecap="round" stroke-linejoin="round"/><path d="M 897.150119302662 580.4586157961379 Q 914.6914986346025 554.1465467982273 894.226556080672 539.528730688277" fill="none" stroke="#84A59D" stroke-width="4" opacity="1" stroke-linecap="round" stroke-linejoin="round"/></g><g opacity="1"><rect x="623.9444098173603" y="177.847091983527" width="155.33711786073394" height="111.84272485972843" rx="10" fill="#1D2027" stroke="#30343C" stroke-width="1" opacity="1"/><rect x="629.9444098173603" y="183.847091983527" width="143.33711786073394" height="99.84272485972843" rx="8" fill="#1D2027" stroke="none" stroke-width="0" opacity="1"/><rect x="659.6790243066414" y="208.80777319845913" width="83.86788888217188" height="49.92136242986422" rx="5.990563491583706" fill="#F28482" stroke="#F5F1E8" stroke-width="2" opacity="1"/><rect x="673.6570057870034" y="220.78890018162653" width="35.943380949502235" height="23.962253966334824" rx="4" fill="#0E0F12" stroke="none" stroke-width="0" opacity="1"/><circle cx="725.5752227140622" cy="233.76845441339123" r="9.984272485972845" fill="#0E0F12" stroke="none" stroke-width="1" opacity="1"/></g><g opacity="1"><rect x="1027.4117725044039" y="291.57291444173256" width="171.75132301279092" height="144.27111133074436" rx="10" fill="#1D2027" stroke="#30343C" stroke-width="1" opacity="1"/><rect x="1033.4117725044039" y="297.57291444173256" width="159.75132301279092" height="132.27111133074436" rx="8" fill="#1D2027" stroke="none" stroke-width="0" opacity="1"/><rect x="1084.1877895180357" y="318.73629225465163" width="58.19928898552752" height="89.94435570490617" rx="9.258977793152106" fill="#0E0F12" stroke="#F5F1E8" stroke-width="2" opacity="1"/><rect x="1102.70574510434" y="312.12273668811446" width="21.163377812919098" height="6.613555566537219" rx="2" fill="#9A6BFF" stroke="none" stroke-width="0" opacity="1"/><circle cx="1113.2874340107994" cy="387.51727014663874" r="6.613555566537219" fill="#9A6BFF" stroke="none" stroke-width="1" opacity="1"/></g><g opacity="1"><rect x="724.6866348288615" y="253.8514783317379" width="180.96012981568794" height="152.00650904517786" rx="10" fill="#1D2027" stroke="#30343C" stroke-width="1" opacity="1"/><rect x="730.6866348288615" y="259.8514783317379" width="168.96012981568794" height="140.00650904517786" rx="8" fill="#1D2027" stroke="none" stroke-width="0" opacity="1"/><circle cx="815.1666997367055" cy="329.8547328543268" r="44.802082894456916" fill="#0E0F12" stroke="#F5F1E8" stroke-width="2" opacity="1"/><circle cx="815.1666997367055" cy="329.8547328543268" r="11.200520723614229" fill="#43AA8B" stroke="none" stroke-width="1" opacity="1"/><path d="M 815.1666997367055 329.8547328543268 Q 855.768587359807 324.2544724925197 852.9684571789035 329.8547328543268" fill="none" stroke="#43AA8B" stroke-width="8" opacity="1" stroke-linecap="round" stroke-linejoin="round"/><path d="M 815.1666997367055 329.8547328543268 Q 819.9515849014127 344.799810592453 796.0826297449831 362.48556395422094" fill="none" stroke="#43AA8B" stroke-width="8" opacity="1" stroke-linecap="round" stroke-linejoin="round"/><path d="M 815.1666997367055 329.8547328543268 Q 820.2987307821462 303.51000467764294 796.6339790849715 296.907636913052" fill="none" stroke="#43AA8B" stroke-width="8" opacity="1" stroke-linecap="round" stroke-linejoin="round"/><path d="M 759.1640961186343 364.85636011562127 Q 815.1666997367055 406.8583128291747 871.1693033547766 364.85636011562127" fill="none" stroke="#F5F1E8" stroke-width="7" opacity="1" stroke-linecap="round" stroke-linejoin="round"/></g><g opacity="1"><rect x="946.7473433954665" y="525.6096751198985" width="183.5290485774102" height="154.16440080502457" rx="10" fill="#1D2027" stroke="#30343C" stroke-width="1" opacity="1"/><rect x="952.7473433954665" y="531.6096751198985" width="171.5290485774102" height="142.16440080502457" rx="8" fill="#1D2027" stroke="none" stroke-width="0" opacity="1"/><circle cx="1038.5118676841716" cy="577.1022833775064" r="31.276168177105404" fill="#E5E8EB" stroke="none" stroke-width="1" opacity="1"/><rect x="1029.9820036358701" y="602.6918755224108" width="17.05972809660295" height="38.38438821735664" rx="4" fill="#F5F1E8" stroke="none" stroke-width="0" opacity="1"/><rect x="1007.2356995070662" y="639.6546197317172" width="62.55233635421081" height="11.373152064401966" rx="6" fill="#0E0F12" stroke="#F5F1E8" stroke-width="2" opacity="1"/><path d="M 1038.5118676841716 602.6918755224108 L 1066.9447478451766 567.1507753211547" fill="none" stroke="#F5F1E8" stroke-width="5" opacity="1" stroke-linecap="round" stroke-linejoin="round"/></g><g opacity="1"><rect x="475.20023069845604" y="386.62199015955525" width="167.70886370066734" height="120.75038186448047" rx="10" fill="#1D2027" stroke="#30343C" stroke-width="1" opacity="1"/><rect x="481.20023069845604" y="392.62199015955525" width="155.70886370066734" height="108.75038186448047" rx="8" fill="#1D2027" stroke="none" stroke-width="0" opacity="1"/><rect x="539.4795938131832" y="414.37206653245136" width="39.15013747121297" height="52.20018329495063" rx="4.350015274579219" fill="#0E0F12" stroke="#F5F1E8" stroke-width="2" opacity="1"/><line x1="559.0546625487897" y1="466.57224982740195" x2="559.0546625487897" y2="487.23482238165326" stroke="#F5F1E8" stroke-width="4" opacity="1"/><line x1="559.0546625487897" y1="487.23482238165326" x2="534.0420747199591" y2="499.19736438674613" stroke="#F5F1E8" stroke-width="3" opacity="1"/><line x1="559.0546625487897" y1="487.23482238165326" x2="584.0672503776202" y2="499.19736438674613" stroke="#F5F1E8" stroke-width="3" opacity="1"/></g><g opacity="1"><rect x="661.7524504683427" y="688.5558952001967" width="177.3068321427071" height="186.17217374984244" rx="10" fill="#1D2027" stroke="#30343C" stroke-width="1" opacity="1"/><rect x="667.7524504683427" y="694.5558952001967" width="165.3068321427071" height="174.17217374984244" rx="8" fill="#1D2027" stroke="none" stroke-width="0" opacity="1"/><rect x="720.6506367540089" y="732.0499324323057" width="59.510459571374554" height="79.3472794284994" rx="6.612273285708284" fill="#0E0F12" stroke="#F5F1E8" stroke-width="2" opacity="1"/><line x1="750.4058665396963" y1="811.3972118608051" x2="750.4058665396963" y2="842.8055099679195" stroke="#F5F1E8" stroke-width="4" opacity="1"/><line x1="750.4058665396963" y1="842.8055099679195" x2="712.3852951468737" y2="860.9892615036173" stroke="#F5F1E8" stroke-width="3" opacity="1"/><line x1="750.4058665396963" y1="842.8055099679195" x2="788.4264379325189" y2="860.9892615036173" stroke="#F5F1E8" stroke-width="3" opacity="1"/><circle cx="750.4058665396963" cy="768.4174355037013" r="49.59204964281213" fill="none" stroke="#B56576" stroke-width="8" opacity="1"/></g><g opacity="1"><rect x="536.8041389898269" y="527.2452472435161" width="177.40128829589082" height="186.27135271068536" rx="10" fill="#1D2027" stroke="#30343C" stroke-width="1" opacity="1"/><rect x="542.8041389898269" y="533.2452472435161" width="165.40128829589082" height="174.27135271068536" rx="8" fill="#1D2027" stroke="none" stroke-width="0" opacity="1"/><circle cx="625.5047831377724" cy="590.6086917055984" r="36.388283425095985" fill="#F2C94C" stroke="none" stroke-width="1" opacity="1"/><rect x="615.5807058400189" y="620.3809235988588" width="19.848154595506898" height="44.658347839890524" rx="4" fill="#F5F1E8" stroke="none" stroke-width="0" opacity="1"/><rect x="589.1164997126764" y="663.3852585557904" width="72.77656685019197" height="13.232103063671266" rx="6" fill="#0E0F12" stroke="#F5F1E8" stroke-width="2" opacity="1"/></g><text x="1248" y="505" font-family="Arial, Helvetica, sans-serif" font-size="10" font-weight="800" fill="#979AA3" text-anchor="start" opacity="1" letter-spacing="1">DRAG TO ROTATE</text><text x="1248" y="526" font-family="Arial, Helvetica, sans-serif" font-size="10" font-weight="800" fill="#979AA3" text-anchor="start" opacity="1" letter-spacing="1">SCROLL TO ZOOM</text><rect x="512.0" y="956" width="416" height="52" rx="26" fill="#13151A" stroke="#30343C" stroke-width="1" opacity="0.98"/><rect x="518.0" y="962" width="194" height="40" rx="20.0" fill="#F5F1E8" stroke="#F5F1E8" stroke-width="1" opacity="1"/><text x="615.0" y="986.68" font-family="Arial, Helvetica, sans-serif" font-size="13" font-weight="700" fill="#090A0D" text-anchor="middle" opacity="1" letter-spacing="0">Explore Products</text><rect x="720.0" y="962" width="202" height="40" rx="20.0" fill="#13151A" stroke="#30343C" stroke-width="1" opacity="1"/><text x="821.0" y="986.68" font-family="Arial, Helvetica, sans-serif" font-size="13" font-weight="700" fill="#F5F1E8" text-anchor="middle" opacity="1" letter-spacing="0">View All Products</text></svg>