<svg xmlns="http://www.w3.org/2000/svg" width="1440" height="1024" viewBox="0 0 1440 1024"><rect width="1440" height="1024" fill="#090A0D"/><text x="40" y="52" font-family="Arial, Helvetica, sans-serif" font-size="17" font-weight="850" fill="#F5F1E8" text-anchor="start" opacity="1" letter-spacing="2.1">XTREAM UTD</text><text x="240" y="52" font-family="Arial, Helvetica, sans-serif" font-size="11" font-weight="750" fill="#F5F1E8" text-anchor="start" opacity="1" letter-spacing="1">HOME</text><line x1="240" y1="64" x2="272" y2="64" stroke="#FF6B45" stroke-width="2" opacity="1"/><text x="352" y="52" font-family="Arial, Helvetica, sans-serif" font-size="11" font-weight="750" fill="#979AA3" text-anchor="start" opacity="1" letter-spacing="1">ALL PRODUCTS</text><text x="494" y="52" font-family="Arial, Helvetica, sans-serif" font-size="11" font-weight="750" fill="#979AA3" text-anchor="start" opacity="1" letter-spacing="1">CATEGORIES</text><text x="606" y="52" font-family="Arial, Helvetica, sans-serif" font-size="11" font-weight="750" fill="#979AA3" text-anchor="start" opacity="1" letter-spacing="1">ABOUT</text><text x="718" y="52" font-family="Arial, Helvetica, sans-serif" font-size="11" font-weight="750" fill="#979AA3" text-anchor="start" opacity="1" letter-spacing="1">CONTACT</text><circle cx="1308" cy="45" r="18" fill="#13151A" stroke="#30343C" stroke-width="1" opacity="1"/><text x="1308" y="50" font-family="Arial, Helvetica, sans-serif" font-size="17" font-weight="700" fill="#F5F1E8" text-anchor="middle" opacity="1" letter-spacing="0">⌕</text><circle cx="1358" cy="45" r="18" fill="#13151A" stroke="#30343C" stroke-width="1" opacity="1"/><circle cx="1358" cy="45" r="6" fill="#F5F1E8" stroke="none" stroke-width="1" opacity="1"/><circle cx="1408" cy="45" r="18" fill="#13151A" stroke="#30343C" stroke-width="1" opacity="1"/><text x="1408" y="50" font-family="Arial, Helvetica, sans-serif" font-size="15" font-weight="700" fill="#F5F1E8" text-anchor="middle" opacity="1" letter-spacing="0">≡</text><text x="40" y="112" font-family="Arial, Helvetica, sans-serif" font-size="12" font-weight="800" fill="#FF6B45" text-anchor="start" opacity="1" letter-spacing="1.7">XTREAM UTD</text><text x="40" y="145" font-family="Arial, Helvetica, sans-serif" font-size="20" font-weight="750" fill="#F5F1E8" text-anchor="start" opacity="1" letter-spacing="0">Trending gadgets and accessories</text><text x="40" y="170" font-family="Arial, Helvetica, sans-serif" font-size="15" font-weight="400" fill="#979AA3" text-anchor="start" opacity="1" letter-spacing="0">for your desk, home and everyday life.</text><text x="40" y="202" font-family="Arial, Helvetica, sans-serif" font-size="9" font-weight="750" fill="#979AA3" text-anchor="start" opacity="1" letter-spacing="0.7">QUALITY PRODUCTS  ·  AFFORDABLE PRICES  ·  DELIVERY ACROSS BANGLADESH</text><ellipse cx="760" cy="530" rx="385" ry="300" fill="none" stroke="#30343C" stroke-width="1" opacity=".23"/><ellipse cx="760" cy="530" rx="300" ry="385" fill="none" stroke="#30343C" stroke-width="1" opacity=".18" transform="rotate(40 760 530)"/><g opacity="1"><rect x="499.7868163092175" y="445.0079373797279" width="89.2833207766154" height="74.99798945235693" rx="10" fill="#1D2027" stroke="#30343C" stroke-width="1" opacity="1"/><rect x="505.7868163092175" y="451.0079373797279" width="77.2833207766154" height="62.99798945235693" rx="8" fill="#1D2027" stroke="none" stroke-width="0" opacity="1"/><rect x="533.0888385961009" y="459.82765590305786" width="22.679276202848495" height="45.35855240569699" rx="6.929778839759263" fill="#F6BD60" stroke="#F5F1E8" stroke-width="2" opacity="1"/><rect x="536.8687179632424" y="454.1578368523457" width="15.119517468565663" height="7.559758734282831" rx="1.8899396835707079" fill="#0E0F12" stroke="#F5F1E8" stroke-width="2" opacity="1"/></g><g opacity="1"><rect x="1010.1276362233583" y="271.1195246674801" width="81.47566228889555" height="85.54944540334033" rx="10" fill="#1D2027" stroke="#30343C" stroke-width="1" opacity="1"/><rect x="1016.1276362233583" y="277.1195246674801" width="69.47566228889555" height="73.54944540334033" rx="8" fill="#1D2027" stroke="none" stroke-width="0" opacity="1"/><rect x="1030.0227686811374" y="289.57776556803685" width="41.68539737333733" height="48.63296360222688" rx="5.558052983111644" fill="#0E0F12" stroke="#F5F1E8" stroke-width="2" opacity="1"/><circle cx="1050.865467367806" cy="305.5571678944828" r="9.726592720445378" fill="none" stroke="#80A96C" stroke-width="5" opacity="1"/><circle cx="1050.865467367806" cy="327.78937982692935" r="6.252809606000599" fill="#80A96C" stroke="none" stroke-width="1" opacity="1"/></g><g opacity="1"><rect x="621.3384746782012" y="609.2504526398742" width="75.49351177660627" height="54.35532847915651" rx="10" fill="#1D2027" stroke="#30343C" stroke-width="1" opacity="1"/><rect x="627.3384746782012" y="615.2504526398742" width="63.49351177660627" height="42.35532847915651" rx="8" fill="#1D2027" stroke="none" stroke-width="0" opacity="1"/><rect x="641.2959926052587" y="627.9570511836212" width="35.57847592249147" height="16.942131391662606" rx="1.6942131391662605" fill="#0E0F12" stroke="#F5F1E8" stroke-width="2" opacity="1"/><rect x="644.2608655987996" y="630.921924177162" width="3.176649635936738" height="2.753096351145173" rx="1" fill="#2FB8D1" stroke="none" stroke-width="0" opacity="0.85"/><rect x="648.708175089111" y="630.921924177162" width="3.176649635936738" height="2.753096351145173" rx="1" fill="#F5F1E8" stroke="none" stroke-width="0" opacity="0.85"/><rect x="653.1554845794225" y="630.921924177162" width="3.176649635936738" height="2.753096351145173" rx="1" fill="#F5F1E8" stroke="none" stroke-width="0" opacity="0.85"/><rect x="657.6027940697338" y="630.921924177162" width="3.176649635936738" height="2.753096351145173" rx="1" fill="#F5F1E8" stroke="none" stroke-width="0" opacity="0.85"/><rect x="662.0501035600453" y="630.921924177162" width="3.176649635936738" height="2.753096351145173" rx="1" fill="#F5F1E8" stroke="none" stroke-width="0" opacity="0.85"/><rect x="666.4974130503567" y="630.921924177162" width="3.176649635936738" height="2.753096351145173" rx="1" fill="#F5F1E8" stroke="none" stroke-width="0" opacity="0.85"/><rect x="670.9447225406682" y="630.921924177162" width="3.176649635936738" height="2.753096351145173" rx="1" fill="#2FB8D1" stroke="none" stroke-width="0" opacity="0.85"/><rect x="644.2608655987996" y="635.3692336674735" width="3.176649635936738" height="2.753096351145173" rx="1" fill="#F5F1E8" stroke="none" stroke-width="0" opacity="0.85"/><rect x="648.708175089111" y="635.3692336674735" width="3.176649635936738" height="2.753096351145173" rx="1" fill="#F5F1E8" stroke="none" stroke-width="0" opacity="0.85"/><rect x="653.1554845794225" y="635.3692336674735" width="3.176649635936738" height="2.753096351145173" rx="1" fill="#F5F1E8" stroke="none" stroke-width="0" opacity="0.85"/><rect x="657.6027940697338" y="635.3692336674735" width="3.176649635936738" height="2.753096351145173" rx="1" fill="#F5F1E8" stroke="none" stroke-width="0" opacity="0.85"/><rect x="662.0501035600453" y="635.3692336674735" width="3.176649635936738" height="2.753096351145173" rx="1" fill="#F5F1E8" stroke="none" stroke-width="0" opacity="0.85"/><rect x="666.4974130503567" y="635.3692336674735" width="3.176649635936738" height="2.753096351145173" rx="1" fill="#2FB8D1" stroke="none" stroke-width="0" opacity="0.85"/><rect x="670.9447225406682" y="635.3692336674735" width="3.176649635936738" height="2.753096351145173" rx="1" fill="#F5F1E8" stroke="none" stroke-width="0" opacity="0.85"/><rect x="644.2608655987996" y="639.816543157785" width="3.176649635936738" height="2.753096351145173" rx="1" fill="#F5F1E8" stroke="none" stroke-width="0" opacity="0.85"/><rect x="648.708175089111" y="639.816543157785" width="3.176649635936738" height="2.753096351145173" rx="1" fill="#F5F1E8" stroke="none" stroke-width="0" opacity="0.85"/><rect x="653.1554845794225" y="639.816543157785" width="3.176649635936738" height="2.753096351145173" rx="1" fill="#F5F1E8" stroke="none" stroke-width="0" opacity="0.85"/><rect x="657.6027940697338" y="639.816543157785" width="3.176649635936738" height="2.753096351145173" rx="1" fill="#F5F1E8" stroke="none" stroke-width="0" opacity="0.85"/><rect x="662.0501035600453" y="639.816543157785" width="3.176649635936738" height="2.753096351145173" rx="1" fill="#2FB8D1" stroke="none" stroke-width="0" opacity="0.85"/><rect x="666.4974130503567" y="639.816543157785" width="3.176649635936738" height="2.753096351145173" rx="1" fill="#F5F1E8" stroke="none" stroke-width="0" opacity="0.85"/><rect x="670.9447225406682" y="639.816543157785" width="3.176649635936738" height="2.753096351145173" rx="1" fill="#F5F1E8" stroke="none" stroke-width="0" opacity="0.85"/></g><g opacity="1"><rect x="865.3594123202171" y="555.1376440604968" width="75.80272296410854" height="54.577960534158144" rx="10" fill="#1D2027" stroke="#30343C" stroke-width="1" opacity="1"/><rect x="871.3594123202171" y="561.1376440604968" width="63.80272296410854" height="42.577960534158144" rx="8" fill="#1D2027" stroke="none" stroke-width="0" opacity="1"/><circle cx="903.2607738022714" cy="584.1297427489421" r="11.921828949564281" fill="#90BE6D" stroke="#F5F1E8" stroke-width="2" opacity="1"/><rect x="898.1514185381724" y="566.2469993245958" width="10.218710528197954" height="8.51559210683163" rx="2.1288980267079074" fill="#0E0F12" stroke="#F5F1E8" stroke-width="2" opacity="1"/><circle cx="903.2607738022714" cy="584.1297427489421" r="2.5546776320494886" fill="#F5F1E8" stroke="none" stroke-width="1" opacity="1"/></g><g opacity="1"><rect x="808.9374017701251" y="709.9528484871266" width="84.2084402611337" height="60.63007698801626" rx="10" fill="#1D2027" stroke="#30343C" stroke-width="1" opacity="1"/><rect x="814.9374017701251" y="715.9528484871266" width="72.2084402611337" height="48.63007698801626" rx="8" fill="#1D2027" stroke="none" stroke-width="0" opacity="1"/><rect x="842.2882080428491" y="725.6788638847299" width="17.506827715685855" height="23.342436954247805" rx="1.9452030795206505" fill="#0E0F12" stroke="#F5F1E8" stroke-width="2" opacity="1"/><line x1="851.041621900692" y1="749.0213008389777" x2="851.041621900692" y2="758.2610154667008" stroke="#F5F1E8" stroke-width="4" opacity="1"/><line x1="851.041621900692" y1="758.2610154667008" x2="839.8567041934483" y2="763.6103239353826" stroke="#F5F1E8" stroke-width="3" opacity="1"/><line x1="851.041621900692" y1="758.2610154667008" x2="862.2265396079357" y2="763.6103239353826" stroke="#F5F1E8" stroke-width="3" opacity="1"/></g><g opacity="1"><rect x="999.528201947576" y="504.801108518642" width="96.85656795331994" height="101.69939635098594" rx="10" fill="#1D2027" stroke="#30343C" stroke-width="1" opacity="1"/><rect x="1005.528201947576" y="510.801108518642" width="84.85656795331994" height="89.69939635098594" rx="8" fill="#1D2027" stroke="none" stroke-width="0" opacity="1"/><rect x="1019.1052528201071" y="540.3766244625374" width="57.70246620825756" height="30.548364463195178" rx="5.091394077199197" fill="#0E0F12" stroke="#F5F1E8" stroke-width="2" opacity="1"/><rect x="1027.5909096154392" y="548.8622812578694" width="8.485656795331995" height="13.57705087253119" rx="2" fill="#6C63FF" stroke="none" stroke-width="0" opacity="1"/><rect x="1041.1679604879703" y="548.8622812578694" width="8.485656795331995" height="13.57705087253119" rx="2" fill="#F5F1E8" stroke="none" stroke-width="0" opacity="1"/><rect x="1054.7450113605016" y="548.8622812578694" width="8.485656795331995" height="13.57705087253119" rx="2" fill="#F5F1E8" stroke="none" stroke-width="0" opacity="1"/><rect x="1068.3220622330327" y="548.8622812578694" width="8.485656795331995" height="13.57705087253119" rx="2" fill="#F5F1E8" stroke="none" stroke-width="0" opacity="1"/></g><g opacity="1"><rect x="423.1683255538598" y="634.6676298968777" width="105.47753237235202" height="88.60112719277569" rx="10" fill="#1D2027" stroke="#30343C" stroke-width="1" opacity="1"/><rect x="429.1683255538598" y="640.6676298968777" width="93.47753237235202" height="76.60112719277569" rx="8" fill="#1D2027" stroke="none" stroke-width="0" opacity="1"/><path d="M 475.9070917400358 651.3917877038663 C 455.22478739798635 655.9878553354328, 451.3947310383476 705.0125767388092, 475.9070917400358 708.0766218265203 C 500.41945244172405 705.0125767388092, 496.5893960820853 655.9878553354328, 475.9070917400358 651.3917877038663 Z" fill="#0E0F12" stroke="#F5F1E8" stroke-width="2" opacity="1" stroke-linecap="round" stroke-linejoin="round"/><line x1="475.9070917400358" y1="653.6898215196495" x2="475.9070917400358" y2="677.43617094941" stroke="#00A6A6" stroke-width="3" opacity="1"/></g><g opacity="1"><rect x="806.6986486567189" y="322.8991046368244" width="110.76597639307403" height="93.04342017018217" rx="10" fill="#1D2027" stroke="#30343C" stroke-width="1" opacity="1"/><rect x="812.6986486567189" y="328.8991046368244" width="98.76597639307403" height="81.04342017018217" rx="8" fill="#1D2027" stroke="none" stroke-width="0" opacity="1"/><rect x="841.8207818107103" y="366.98951211681" width="40.52171008509109" height="28.36519705956376" rx="6.483473613614574" fill="#F5F1E8" stroke="none" stroke-width="0" opacity="1"/><circle cx="850.7355580294304" cy="353.21213068787904" r="8.91477621872004" fill="#6C7BFF" stroke="#0E0F12" stroke-width="2" opacity="1"/><circle cx="873.4277156770813" cy="353.21213068787904" r="8.91477621872004" fill="#6C7BFF" stroke="#0E0F12" stroke-width="2" opacity="1"/></g><g opacity="1"><rect x="553.5219043406049" y="201.56714187284695" width="125.34872512145766" height="105.29292910202443" rx="10" fill="#1D2027" stroke="#30343C" stroke-width="1" opacity="1"/><rect x="559.5219043406049" y="207.56714187284695" width="113.34872512145766" height="93.29292910202443" rx="8" fill="#1D2027" stroke="none" stroke-width="0" opacity="1"/><rect x="593.8059639168479" y="228.09158627529234" width="44.78060596897173" height="52.24404029713369" rx="5.597575746121466" fill="#F5F1E8" stroke="none" stroke-width="0" opacity="1"/><rect x="606.8669739911313" y="216.89643478304941" width="5.597575746121466" height="14.92686865632391" rx="2" fill="#577590" stroke="none" stroke-width="0" opacity="1"/><rect x="619.9279840654148" y="216.89643478304941" width="5.597575746121466" height="14.92686865632391" rx="2" fill="#577590" stroke="none" stroke-width="0" opacity="1"/><circle cx="616.1962669013337" cy="258.8782528789604" r="10.262222201222688" fill="#0E0F12" stroke="none" stroke-width="1" opacity="1"/></g><g opacity="1"><rect x="668.9438932966018" y="296.54653725645346" width="118.14371889583447" height="124.0509048406262" rx="10" fill="#1D2027" stroke="#30343C" stroke-width="1" opacity="1"/><rect x="674.9438932966018" y="302.54653725645346" width="106.14371889583447" height="112.0509048406262" rx="8" fill="#1D2027" stroke="none" stroke-width="0" opacity="1"/><rect x="715.2785064770188" y="311.8687533625994" width="25.47449253500027" height="93.40647262833433" rx="10.614371889583447" fill="#E76BA8" stroke="none" stroke-width="0" opacity="1"/><rect x="703.6026973984771" y="333.0974971417663" width="48.82611069208386" height="50.94898507000054" rx="8.491497511666758" fill="#0E0F12" stroke="#F5F1E8" stroke-width="2" opacity="1"/><circle cx="728.015752744519" cy="358.5719896767666" r="11.675809078541791" fill="none" stroke="#E76BA8" stroke-width="3" opacity="1"/></g><g opacity="1"><rect x="347.0975559982036" y="501.0478273221911" width="116.61758374359329" height="83.96466029538716" rx="10" fill="#1D2027" stroke="#30343C" stroke-width="1" opacity="1"/><rect x="353.0975559982036" y="507.0478273221911" width="104.61758374359329" height="71.96466029538716" rx="8" fill="#1D2027" stroke="none" stroke-width="0" opacity="1"/><path d="M 380.9383633695686 550.2266234994233 C 391.01341581092277 517.8425263664992, 416.2010469143083 568.2177885732701, 429.87433237043183 535.833691440346" fill="none" stroke="#3977F6" stroke-width="7" opacity="1" stroke-linecap="round" stroke-linejoin="round"/><rect x="375.1811905459376" y="545.9087438817002" width="8.635759235446459" height="8.635759235446459" rx="2" fill="#F5F1E8" stroke="none" stroke-width="0" opacity="1"/><rect x="426.99574595861634" y="531.5158118226227" width="8.635759235446459" height="8.635759235446459" rx="2" fill="#F5F1E8" stroke="none" stroke-width="0" opacity="1"/></g><g opacity="1"><rect x="957.4065507531969" y="397.07423388477673" width="117.43172108241178" height="84.55083917933648" rx="10" fill="#1D2027" stroke="#30343C" stroke-width="1" opacity="1"/><rect x="963.4065507531969" y="403.07423388477673" width="105.43172108241178" height="72.55083917933648" rx="8" fill="#1D2027" stroke="none" stroke-width="0" opacity="1"/><rect x="988.5530924062549" y="419.03541850423073" width="55.138637776295724" height="40.62846994042843" rx="5.804067134346918" fill="#0E0F12" stroke="#F5F1E8" stroke-width="2" opacity="1"/><line x1="1016.1224112944028" y1="419.03541850423073" x2="1016.1224112944028" y2="459.66388844465916" stroke="#F5F1E8" stroke-width="2" opacity="1"/><rect x="995.0826679323952" y="428.4670275975445" width="14.510167835867296" height="21.765251753800943" rx="4" fill="#4D908E" stroke="none" stroke-width="0" opacity="1"/><circle cx="1030.6325791302702" cy="439.34965347444495" r="6.529575526140283" fill="#4D908E" stroke="none" stroke-width="1" opacity="1"/></g><g opacity="1"><rect x="809.1218566668385" y="512.9710019121915" width="133.21772311191708" height="95.91676064058029" rx="10" fill="#1D2027" stroke="#30343C" stroke-width="1" opacity="1"/><rect x="815.1218566668385" y="518.9710019121915" width="121.21772311191708" height="83.91676064058029" rx="8" fill="#1D2027" stroke="none" stroke-width="0" opacity="1"/><path d="M 852.2340252434346 576.0343991477861 L 895.8707407765364 576.0343991477861 L 882.4440590740436 552.5377061684236 L 865.6607069459275 552.5377061684236 Z" fill="#FF7354" stroke="#F5F1E8" stroke-width="2" opacity="1" stroke-linecap="round" stroke-linejoin="round"/><rect x="856.4298632754636" y="531.5585160082785" width="38.60170989466694" height="23.496692979362486" rx="4" fill="#0E0F12" stroke="#F5F1E8" stroke-width="2" opacity="1"/></g><g opacity="1"><rect x="770.9201349255034" y="556.9393519835194" width="147.4411684496423" height="154.81322687212443" rx="10" fill="#1D2027" stroke="#30343C" stroke-width="1" opacity="1"/><rect x="776.9201349255034" y="562.9393519835194" width="135.4411684496423" height="142.81322687212443" rx="8" fill="#1D2027" stroke="none" stroke-width="0" opacity="1"/><rect x="810.7804270379139" y="612.6753784676388" width="67.72058422482115" height="65.0117608558283" rx="13.54411684496423" fill="#F5F1E8" stroke="none" stroke-width="0" opacity="1"/><circle cx="844.6407191503245" cy="639.7636121575673" r="10.835293475971385" fill="#84A59D" stroke="none" stroke-width="1" opacity="1"/><path d="M 833.805425674353 609.966555098646 Q 822.9701321983816 582.8783214087175 840.5774840968352 577.4606746707318" fill="none" stroke="#84A59D" stroke-width="4" opacity="1" stroke-linecap="round" stroke-linejoin="round"/><path d="M 852.767189257303 609.966555098646 Q 869.02012947126 585.5871447777104 850.0583658883102 572.0430279327461" fill="none" stroke="#84A59D" stroke-width="4" opacity="1" stroke-linecap="round" stroke-linejoin="round"/></g><g opacity="1"><rect x="675.8267518495666" y="589.7790710513843" width="156.19535454895436" height="131.20409782112165" rx="10" fill="#1D2027" stroke="#30343C" stroke-width="1" opacity="1"/><rect x="681.8267518495666" y="595.7790710513843" width="144.19535454895436" height="119.20409782112165" rx="8" fill="#1D2027" stroke="none" stroke-width="0" opacity="1"/><rect x="715.7791178212848" y="612.4676447463414" width="14.304491738534598" height="85.82695043120758" rx="5.960204891056083" fill="#FFB000" stroke="none" stroke-width="0" opacity="1"/><rect x="777.7652486882681" y="612.4676447463414" width="14.304491738534598" height="85.82695043120758" rx="5.960204891056083" fill="#F5F1E8" stroke="none" stroke-width="0" opacity="1"/><line x1="722.9313636905521" y1="700.6786771339714" x2="742.0040193419316" y2="710.2150049596611" stroke="#F5F1E8" stroke-width="4" opacity="1"/><line x1="784.9174945575354" y1="700.6786771339714" x2="765.8448389061559" y2="710.2150049596611" stroke="#F5F1E8" stroke-width="4" opacity="1"/></g><g opacity="1"><rect x="1088.7307818288334" y="394.42623401087184" width="162.04027260050933" height="136.11382898442784" rx="10" fill="#1D2027" stroke="#30343C" stroke-width="1" opacity="1"/><rect x="1094.7307818288334" y="400.42623401087184" width="150.04027260050933" height="124.11382898442784" rx="8" fill="#1D2027" stroke="none" stroke-width="0" opacity="1"/><rect x="1142.445875752514" y="420.2844466483803" width="54.61008475314825" height="84.39740370941094" rx="8.68796802890995" fill="#0E0F12" stroke="#F5F1E8" stroke-width="2" opacity="1"/><rect x="1159.8218118103339" y="414.07875519915893" width="19.858212637508455" height="6.205691449221392" rx="2" fill="#9A6BFF" stroke="none" stroke-width="0" opacity="1"/><circle cx="1169.7509181290882" cy="484.82363772028276" r="6.205691449221392" fill="#9A6BFF" stroke="none" stroke-width="1" opacity="1"/></g><g opacity="1"><rect x="471.603647569346" y="493.0350856281442" width="154.73888783579542" height="162.47583222758522" rx="10" fill="#1D2027" stroke="#30343C" stroke-width="1" opacity="1"/><rect x="477.603647569346" y="499.0350856281442" width="142.73888783579542" height="150.47583222758522" rx="8" fill="#1D2027" stroke="none" stroke-width="0" opacity="1"/><rect x="516.1431472850107" y="534.3061131479141" width="65.6598884044659" height="79.93377718804544" rx="8.564333270147726" fill="#F5F1E8" stroke="none" stroke-width="0" opacity="1"/><rect x="534.6992027036641" y="517.1774466076187" width="8.564333270147726" height="22.838222053727268" rx="2" fill="#F94144" stroke="none" stroke-width="0" opacity="1"/><rect x="554.6826470006755" y="517.1774466076187" width="8.564333270147726" height="22.838222053727268" rx="2" fill="#F94144" stroke="none" stroke-width="0" opacity="1"/><path d="M 541.8361470954538 567.136057350147 L 556.1100358790335 567.136057350147 L 548.9730914872437 591.4016682822322 Z" fill="#F94144" stroke="none" stroke-width="1" opacity="1" stroke-linecap="round" stroke-linejoin="round"/></g><g opacity="1"><rect x="818.4724323995795" y="282.6852412881024" width="174.17468112833487" height="146.30673214780128" rx="10" fill="#1D2027" stroke="#30343C" stroke-width="1" opacity="1"/><rect x="824.4724323995795" y="288.6852412881024" width="162.17468112833487" height="134.30673214780128" rx="8" fill="#1D2027" stroke="none" stroke-width="0" opacity="1"/><circle cx="905.5597729637469" cy="355.8386073620031" r="42.97815428729641" fill="#0E0F12" stroke="#F5F1E8" stroke-width="2" opacity="1"/><circle cx="905.5597729637469" cy="355.8386073620031" r="10.744538571824103" fill="#43AA8B" stroke="none" stroke-width="1" opacity="1"/><path d="M 905.5597729637469 355.8386073620031 Q 944.5087252866093 350.466338076091 941.8225906436533 355.8386073620031" fill="none" stroke="#43AA8B" stroke-width="8" opacity="1" stroke-linecap="round" stroke-linejoin="round"/><path d="M 905.5597729637469 355.8386073620031 Q 910.1498616286029 370.1752590390682 887.2526307162314 387.1410112443786" fill="none" stroke="#43AA8B" stroke-width="8" opacity="1" stroke-linecap="round" stroke-linejoin="round"/><path d="M 905.5597729637469 355.8386073620031 Q 910.4828749230408 330.56639412804 887.781534183868 324.2328140327456" fill="none" stroke="#43AA8B" stroke-width="8" opacity="1" stroke-linecap="round" stroke-linejoin="round"/><path d="M 851.8370801046265 389.4152903989534 Q 905.5597729637469 429.7073100432938 959.2824658228674 389.4152903989534" fill="none" stroke="#F5F1E8" stroke-width="7" opacity="1" stroke-linecap="round" stroke-linejoin="round"/></g><g opacity="1"><rect x="363.8980853998017" y="311.0054860785296" width="166.70164483736482" height="175.03672707923306" rx="10" fill="#1D2027" stroke="#30343C" stroke-width="1" opacity="1"/><rect x="369.8980853998017" y="317.0054860785296" width="154.70164483736482" height="163.03672707923306" rx="8" fill="#1D2027" stroke="none" stroke-width="0" opacity="1"/><circle cx="447.2489078184841" cy="398.52384961814613" r="49.50452634795675" fill="#0E0F12" stroke="#F5F1E8" stroke-width="2" opacity="1"/><circle cx="447.2489078184841" cy="398.52384961814613" r="12.376131586989187" fill="#FF9C7A" stroke="none" stroke-width="1" opacity="1"/><path d="M 447.2489078184841 398.52384961814613 Q 492.1123848213199 392.3357838246515 489.0183519245726 398.52384961814613" fill="none" stroke="#FF9C7A" stroke-width="8" opacity="1" stroke-linecap="round" stroke-linejoin="round"/><path d="M 447.2489078184841 398.52384961814613 Q 452.5360163278411 415.03756833078364 426.1617666702238 434.5796250102383" fill="none" stroke="#FF9C7A" stroke-width="8" opacity="1" stroke-linecap="round" stroke-linejoin="round"/><path d="M 447.2489078184841 398.52384961814613 Q 452.9195987706449 369.4139688738791 426.7709858440887 362.1186141080958" fill="none" stroke="#FF9C7A" stroke-width="8" opacity="1" stroke-linecap="round" stroke-linejoin="round"/></g><g opacity="1"><rect x="528.8410029346032" y="343.0671833089904" width="162.5413063606056" height="117.02974057963603" rx="10" fill="#1D2027" stroke="#30343C" stroke-width="1" opacity="1"/><rect x="534.8410029346032" y="349.0671833089904" width="150.5413063606056" height="105.02974057963603" rx="8" fill="#1D2027" stroke="none" stroke-width="0" opacity="1"/><rect x="591.2063028105715" y="370.0731314249176" width="37.810706608668966" height="50.41427547822529" rx="4.201189623185441" fill="#0E0F12" stroke="#F5F1E8" stroke-width="2" opacity="1"/><line x1="610.111656114906" y1="420.4874069031429" x2="610.111656114906" y2="440.44305761327377" stroke="#F5F1E8" stroke-width="4" opacity="1"/><line x1="610.111656114906" y1="440.44305761327377" x2="585.9548157815898" y2="451.99632907703375" stroke="#F5F1E8" stroke-width="3" opacity="1"/><line x1="610.111656114906" y1="440.44305761327377" x2="634.2684964482223" y2="451.99632907703375" stroke="#F5F1E8" stroke-width="3" opacity="1"/></g><g opacity="1"><rect x="762.4079738839878" y="178.4013549666793" width="162.96872136761" height="117.33747938467918" rx="10" fill="#1D2027" stroke="#30343C" stroke-width="1" opacity="1"/><rect x="768.4079738839878" y="184.4013549666793" width="150.96872136761" height="105.33747938467918" rx="8" fill="#1D2027" stroke="none" stroke-width="0" opacity="1"/><rect x="799.6505932262276" y="210.73572481284907" width="88.48348268313052" height="52.66873969233959" rx="6.320248763080751" fill="#F28482" stroke="#F5F1E8" stroke-width="2" opacity="1"/><rect x="814.3978403400826" y="223.37622233901058" width="37.921492578484504" height="25.280995052323004" rx="4" fill="#0E0F12" stroke="none" stroke-width="0" opacity="1"/><circle cx="869.1733296201157" cy="237.07009465901888" r="10.533747938467918" fill="#0E0F12" stroke="none" stroke-width="1" opacity="1"/></g><g opacity="1"><rect x="504.34487548523407" y="489.8028701325648" width="173.9684853220677" height="182.66690958817108" rx="10" fill="#1D2027" stroke="#30343C" stroke-width="1" opacity="1"/><rect x="510.34487548523407" y="495.8028701325648" width="161.9684853220677" height="170.66690958817108" rx="8" fill="#1D2027" stroke="none" stroke-width="0" opacity="1"/><circle cx="591.3291181462679" cy="551.9819975686781" r="35.633066770854896" fill="#F2C94C" stroke="none" stroke-width="1" opacity="1"/><rect x="581.6110090269439" y="581.1363249266503" width="19.436218238648124" height="43.73149103695828" rx="4" fill="#F5F1E8" stroke="none" stroke-width="0" opacity="1"/><rect x="555.6960513754129" y="623.2481311103879" width="71.26613354170979" height="12.957478825765415" rx="6" fill="#0E0F12" stroke="#F5F1E8" stroke-width="2" opacity="1"/></g><g opacity="1"><rect x="544.2170162816077" y="670.6168394362402" width="177.8288818960056" height="186.7203259908059" rx="10" fill="#1D2027" stroke="#30343C" stroke-width="1" opacity="1"/><rect x="550.2170162816077" y="676.6168394362402" width="165.8288818960056" height="174.7203259908059" rx="8" fill="#1D2027" stroke="none" stroke-width="0" opacity="1"/><rect x="603.2822584883295" y="714.2283378628414" width="59.698397482562015" height="79.59786331008269" rx="6.633155275840225" fill="#0E0F12" stroke="#F5F1E8" stroke-width="2" opacity="1"/><line x1="633.1314572296105" y1="793.8262011729241" x2="633.1314572296105" y2="825.3336887331652" stroke="#F5F1E8" stroke-width="4" opacity="1"/><line x1="633.1314572296105" y1="825.3336887331652" x2="594.9908143935293" y2="843.5748657417257" stroke="#F5F1E8" stroke-width="3" opacity="1"/><line x1="633.1314572296105" y1="825.3336887331652" x2="671.2721000656918" y2="843.5748657417257" stroke="#F5F1E8" stroke-width="3" opacity="1"/><circle cx="633.1314572296105" cy="750.7106918799626" r="49.74866456880168" fill="none" stroke="#B56576" stroke-width="8" opacity="1"/></g><g opacity="1"><rect x="894.6361877581058" y="590.1312928786153" width="185.89030017802048" height="156.1478521495372" rx="10" fill="#1D2027" stroke="#30343C" stroke-width="1" opacity="1"/><rect x="900.6361877581058" y="596.1312928786153" width="173.89030017802048" height="144.1478521495372" rx="8" fill="#1D2027" stroke="none" stroke-width="0" opacity="1"/><circle cx="987.5813378471161" cy="642.2586055664672" r="31.71252747289818" fill="#E5E8EB" stroke="none" stroke-width="1" opacity="1"/><rect x="978.9324667181438" y="668.2052189533839" width="17.29774225794446" height="38.91992008037504" rx="4" fill="#F5F1E8" stroke="none" stroke-width="0" opacity="1"/><rect x="955.8688103742179" y="705.6836605122636" width="63.42505494579636" height="11.531828171962974" rx="6" fill="#0E0F12" stroke="#F5F1E8" stroke-width="2" opacity="1"/><path d="M 987.5813378471161 668.2052189533839 L 1016.4109082770235 632.1682559159996" fill="none" stroke="#F5F1E8" stroke-width="5" opacity="1" stroke-linecap="round" stroke-linejoin="round"/></g><circle cx="760" cy="530" r="36" fill="#13151A" stroke="#FF6B45" stroke-width="2" opacity="0.97"/><text x="760" y="537" font-family="Arial, Helvetica, sans-serif" font-size="25" font-weight="800" fill="#F5F1E8" text-anchor="middle" opacity="1" letter-spacing="0">↔</text><text x="760" y="592" font-family="Arial, Helvetica, sans-serif" font-size="10" font-weight="800" fill="#FF6B45" text-anchor="middle" opacity="1" letter-spacing="1.2">DRAGGING PRODUCT WORLD</text><text x="1248" y="505" font-family="Arial, Helvetica, sans-serif" font-size="10" font-weight="800" fill="#979AA3" text-anchor="start" opacity="1" letter-spacing="1">DRAG TO ROTATE</text><text x="1248" y="526" font-family="Arial, Helvetica, sans-serif" font-size="10" font-weight="800" fill="#979AA3" text-anchor="start" opacity="1" letter-spacing="1">SCROLL TO ZOOM</text><rect x="512.0" y="956" width="416" height="52" rx="26" fill="#13151A" stroke="#30343C" stroke-width="1" opacity="0.98"/><rect x="518.0" y="962" width="194" height="40" rx="20.0" fill="#F5F1E8" stroke="#F5F1E8" stroke-width="1" opacity="1"/><text x="615.0" y="986.68" font-family="Arial, Helvetica, sans-serif" font-size="13" font-weight="700" fill="#090A0D" text-anchor="middle" opacity="1" letter-spacing="0">Explore Products</text><rect x="720.0" y="962" width="202" height="40" rx="20.0" fill="#13151A" stroke="#30343C" stroke-width="1" opacity="1"/><text x="821.0" y="986.68" font-family="Arial, Helvetica, sans-serif" font-size="13" font-weight="700" fill="#F5F1E8" text-anchor="middle" opacity="1" letter-spacing="0">View All Products</text></svg>